<?xml version="1.0" encoding="utf-8"?>
<!-- Generator: Adobe Illustrator 27.5.0, SVG Export Plug-In . SVG Version: 6.00 Build 0)  -->
<svg version="1.1" id="Layer_1" xmlns="http://www.w3.org/2000/svg" xmlns:xlink="http://www.w3.org/1999/xlink" x="0px" y="0px"
	 viewBox="0 0 1242.51 502.09" style="enable-background:new 0 0 1242.51 502.09;" xml:space="preserve">
<style type="text/css">
	.st0{fill:#00AEEF;}
	.st1{fill:#84D4EF;}
	.st2{fill:#1C75BC;}
</style>
<g>
	<path class="st0" d="M465.83,194.92h41.34l43.46,124.38h1.41l43.46-124.38h41.34L571.84,371.6h-40.99L465.83,194.92z"/>
	<path class="st0" d="M661.59,194.92h39.58V371.6h-39.58V194.92z"/>
	<path class="st0" d="M737.2,324.25h39.93c2.83,13.43,13.78,20.85,31.45,20.85c17.31,0,28.98-8.48,28.98-21.56
		c0-11.66-7.07-16.96-24.38-20.85l-25.09-6.01c-31.45-7.07-47-24.74-47-51.59c0-33.92,25.8-55.13,66.79-55.13
		c39.58,0,63.96,19.08,65.73,51.94h-37.81c-2.12-13.07-12.72-20.85-28.62-20.85c-16.26,0-26.5,8.13-26.5,20.85
		c0,10.95,6.36,17.31,23.32,21.2l25.44,5.65c33.92,7.77,48.76,22.97,48.76,49.47c0,35.34-27.56,58.31-70.32,58.31
		C766.18,376.55,740.03,357.11,737.2,324.25z"/>
	<path class="st1" d="M998.34,321.42h-95.41v-29.33l72.79-167.85h38.16l-67.14,158.66v2.47h51.59v-59.37h38.16v59.01h31.45v36.4
		h-31.45v50.18h-38.16V321.42z"/>
	<path class="st1" d="M1093.04,310.47v-54.06c0-36.75,28.27-66.43,63.25-66.43c18.02,0,33.92,7.77,45.23,20.5h1.41v-86.22h39.58
		v247.71h-39.58v-15.9h-1.06c-11.31,12.72-27.56,20.5-45.58,20.5C1121.3,376.55,1093.04,347.22,1093.04,310.47z M1202.93,308.7
		v-50.18c0-19.43-16.96-35.69-36.04-35.69c-19.79,0-36.4,16.26-36.4,37.81v45.58c0,21.91,16.61,37.81,36.4,37.81
		C1185.97,344.04,1202.93,328.14,1202.93,308.7z"/>
	<polyline class="st2" points="217.46,0 0,125.45 0,376.82 217.46,251.01 	"/>
	<polyline class="st1" points="217.46,0 434.79,125.45 434.79,376.82 217.46,251.01 	"/>
	<polyline class="st0" points="434.79,376.82 217.46,502.09 0,376.82 217.46,251.01 	"/>
	<polyline class="st2" points="217.89,408.14 353.38,329.69 353.61,172.07 217.63,251.03 	"/>
	<polyline class="st1" points="217.89,408.14 81.73,329.53 81.48,172.51 217.63,251.03 	"/>
	<polyline class="st0" points="81.48,172.51 217.38,93.88 353.61,172.07 217.63,251.03 	"/>
	<polygon class="st0" points="681.34,106.73 651.23,124.15 651.29,158.93 681.45,176.35 711.47,158.97 711.52,124.05 	"/>
</g>
</svg>
